<svg width="96" height="96" xmlns="http://www.w3.org/2000/svg" xmlns:xlink="http://www.w3.org/1999/xlink" xml:space="preserve" overflow="hidden"><g transform="translate(-271 -445)"><path d="M300 471C301.7 471 303 469.7 303 468L303 462C303 460.3 301.7 459 300 459 298.3 459 297 460.3 297 462L297 468C297 469.7 298.3 471 300 471Z"/><path d="M291 513 307 513 307 521 291 521 291 513ZM291 501 307 501 307 509 291 509 291 501ZM291 489 307 489 307 497 291 497 291 489ZM327 489 327 497 311 497 311 489 327 489ZM347 489 347 497 331 497 331 489 347 489ZM347 509 331 509 331 501 347 501 347 509ZM347 521 331 521 331 513 347 513 347 521ZM311 509 311 501 327 501 327 509 311 509ZM311 521 311 513 327 513 327 521 311 521ZM285 527 353 527 353 483 285 483 285 527Z"/><path d="M338 471C339.7 471 341 469.7 341 468L341 462C341 460.3 339.7 459 338 459 336.3 459 335 460.3 335 462L335 468C335 469.7 336.3 471 338 471Z"/><path d="M345 465 345 468C345 471.9 341.9 475 338 475 334.1 475 331 471.9 331 468L331 465 307 465 307 468C307 471.9 303.9 475 300 475 296.1 475 293 471.9 293 468L293 465 285 465 285 479 353 479 353 465 345 465Z"/></g></svg>