<svg width="96" height="96" xmlns="http://www.w3.org/2000/svg" xmlns:xlink="http://www.w3.org/1999/xlink" xml:space="preserve" overflow="hidden"><g transform="translate(-260 -173)"><path d="M268 193 268 249 348 249 348 193 268 193ZM309.4 227.9C308.6 228.7 307.4 228.7 306.6 227.9L277 199 339.1 199 309.4 227.9ZM293.5 220.7 274 240.3 274 201.6 293.5 220.7ZM296.4 223.5 303.9 230.8C305.1 231.9 306.6 232.5 308.1 232.5 309.6 232.5 311.1 231.9 312.3 230.8L319.8 223.5 339.2 243 276.9 243 296.4 223.5ZM322.5 220.7 342 201.7 342 240.2 322.5 220.7Z"/></g></svg>