<svg width="96" height="96" xmlns="http://www.w3.org/2000/svg" xmlns:xlink="http://www.w3.org/1999/xlink" xml:space="preserve" overflow="hidden"><g transform="translate(-260 -77)"><path d="M299.2 106.2C300 105.4 300.5 104.3 300.5 103.1 300.5 101.9 300 100.8 299.2 100L285.4 86.3C284.6 85.5 283.5 85 282.4 85 281.3 85 280.1 85.5 279.3 86.3L277.8 87.8 297.7 107.7 299.2 106.2Z"/><path d="M319.3 141.5C318.9 141.9 318.3 142.1 317.8 142.1 317.3 142.1 316.7 141.9 316.3 141.5L291.5 116.8C291.1 116.4 290.9 115.8 290.9 115.3 290.9 114.8 291.1 114.2 291.5 113.8L294.6 110.8 274.7 90.9C273.4 92.2 272.2 93.4 271.4 94.2 269.4 96.1 268.2 98.6 268.1 101.3 267.8 105.8 268.9 110.1 270.4 114.3 272 118 274.1 121.5 276.4 124.8 284.6 137.1 294.9 147.8 306.9 156.3 308.9 157.8 311 159.1 313.2 160.3 318.2 162.8 323.5 164.6 329.2 165 333 165.3 336.8 163.8 339.4 161L342.1 158.3 322.3 138.4 319.3 141.5Z"/><path d="M346.7 147.6 332.9 133.8C332.1 133 331 132.5 329.8 132.5 328.6 132.5 327.5 133 326.7 133.8L325.2 135.4 345.1 155.3 346.6 153.8C347.4 153 347.9 151.9 347.9 150.7 347.9 149.5 347.5 148.4 346.7 147.6Z"/></g></svg>