<svg width="96" height="96" xmlns="http://www.w3.org/2000/svg" xmlns:xlink="http://www.w3.org/1999/xlink" xml:space="preserve" overflow="hidden"><g transform="translate(-271 -541)"><path d="M319 621C301.4 621 287 606.6 287 589 287 571.4 301.4 557 319 557 336.6 557 351 571.4 351 589 351 606.6 336.6 621 319 621ZM319 551C298 551 281 568 281 589 281 610 298 627 319 627 340 627 357 610 357 589 357 568 340 551 319 551Z"/><path d="M321 569 317 569 317 589C317 589.6 317.2 590.1 317.6 590.4L331.7 604.5 334.5 601.7 321 588.2 321 569Z"/><path d="M321 563C321 564.105 320.105 565 319 565 317.895 565 317 564.105 317 563 317 561.895 317.895 561 319 561 320.105 561 321 561.895 321 563Z"/><path d="M321 615C321 616.105 320.105 617 319 617 317.895 617 317 616.105 317 615 317 613.895 317.895 613 319 613 320.105 613 321 613.895 321 615Z"/><path d="M295 589C295 590.105 294.105 591 293 591 291.895 591 291 590.105 291 589 291 587.895 291.895 587 293 587 294.105 587 295 587.895 295 589Z"/><path d="M347 589C347 590.105 346.105 591 345 591 343.895 591 343 590.105 343 589 343 587.895 343.895 587 345 587 346.105 587 347 587.895 347 589Z"/></g></svg>